<svg xmlns="http://www.w3.org/2000/svg" xmlns:xlink="http://www.w3.org/1999/xlink" width="200" zoomAndPan="magnify" viewBox="0 0 150 149.999998" height="200" preserveAspectRatio="xMidYMid meet" version="1.0"><defs><clipPath id="486f16c559"><path d="M 75 0 C 33.578125 0 0 33.578125 0 75 C 0 116.421875 33.578125 150 75 150 C 116.421875 150 150 116.421875 150 75 C 150 33.578125 116.421875 0 75 0 Z M 75 0 " clip-rule="nonzero"/></clipPath><clipPath id="611b6231b1"><path d="M 39.964844 39.964844 L 109.714844 39.964844 L 109.714844 109.714844 L 39.964844 109.714844 Z M 39.964844 39.964844 " clip-rule="nonzero"/></clipPath></defs><rect x="-15" width="180" fill="#ffffff" y="-15" height="179.999997" fill-opacity="1"/><rect x="-15" width="180" fill="#ffffff" y="-15" height="179.999997" fill-opacity="1"/><g clip-path="url(#486f16c559)"><rect x="-15" width="180" fill="#ff5757" y="-15" height="179.999997" fill-opacity="1"/></g><g clip-path="url(#611b6231b1)"><path fill="#141f6a" d="M 110.03125 53.203125 L 96.792969 39.964844 L 75 61.757812 L 53.203125 39.964844 L 39.964844 53.203125 L 61.757812 75 L 39.964844 96.792969 L 53.203125 110.03125 L 75 88.238281 L 96.792969 110.03125 L 110.03125 96.792969 L 88.238281 75 Z M 110.03125 53.203125 " fill-opacity="1" fill-rule="nonzero"/></g></svg>