<svg xmlns="http://www.w3.org/2000/svg" xmlns:xlink="http://www.w3.org/1999/xlink" width="200" zoomAndPan="magnify" viewBox="0 0 150 149.999998" height="200" preserveAspectRatio="xMidYMid meet" version="1.0"><defs><clipPath id="bbf6e767ad"><path d="M 75 0 C 33.578125 0 0 33.578125 0 75 C 0 116.421875 33.578125 150 75 150 C 116.421875 150 150 116.421875 150 75 C 150 33.578125 116.421875 0 75 0 Z M 75 0 " clip-rule="nonzero"/></clipPath><clipPath id="afe8328849"><path d="M 31.867188 41 L 118.117188 41 L 118.117188 109.890625 L 31.867188 109.890625 Z M 31.867188 41 " clip-rule="nonzero"/></clipPath></defs><rect x="-15" width="180" fill="#ffffff" y="-15" height="179.999997" fill-opacity="1"/><rect x="-15" width="180" fill="#ffffff" y="-15" height="179.999997" fill-opacity="1"/><g clip-path="url(#bbf6e767ad)"><rect x="-15" width="180" fill="#02a54b" y="-15" height="179.999997" fill-opacity="1"/></g><g clip-path="url(#afe8328849)"><path fill="#141f6a" d="M 61.515625 109.613281 L 31.867188 79.964844 L 43.679688 68.148438 L 61.515625 85.980469 L 106.316406 41.183594 L 118.128906 52.996094 Z M 61.515625 109.613281 " fill-opacity="1" fill-rule="nonzero"/></g></svg>